<mxfile host="app.diagrams.net" modified="2022-11-01T03:26:15.693Z" agent="5.0 (Windows NT 10.0; Win64; x64) AppleWebKit/537.36 (KHTML, like Gecko) Chrome/106.0.0.0 Safari/537.36" etag="WsRvneec0dFm5hwHhO1a" version="20.4.2" type="github">
  <diagram id="dyV8Kzj0wz4IXfAM-PvV" name="Page-1">
    <mxGraphModel dx="1375" dy="503" grid="1" gridSize="10" guides="1" tooltips="1" connect="1" arrows="1" fold="1" page="1" pageScale="1" pageWidth="850" pageHeight="1100" math="0" shadow="0">
      <root>
        <mxCell id="0" />
        <mxCell id="1" parent="0" />
        <mxCell id="VCeN5NyhKmtZWZoLSInZ-2" value="STUDENT" style="text;html=1;strokeColor=none;fillColor=none;align=center;verticalAlign=middle;whiteSpace=wrap;rounded=0;" vertex="1" parent="1">
          <mxGeometry x="40" y="60" width="60" height="30" as="geometry" />
        </mxCell>
        <mxCell id="VCeN5NyhKmtZWZoLSInZ-5" value="FName" style="rounded=0;whiteSpace=wrap;html=1;" vertex="1" parent="1">
          <mxGeometry x="40" y="90" width="80" height="20" as="geometry" />
        </mxCell>
        <mxCell id="VCeN5NyhKmtZWZoLSInZ-6" value="LName" style="rounded=0;whiteSpace=wrap;html=1;" vertex="1" parent="1">
          <mxGeometry x="120" y="90" width="80" height="20" as="geometry" />
        </mxCell>
        <mxCell id="VCeN5NyhKmtZWZoLSInZ-7" value="Month" style="rounded=0;whiteSpace=wrap;html=1;" vertex="1" parent="1">
          <mxGeometry x="200" y="90" width="80" height="20" as="geometry" />
        </mxCell>
        <mxCell id="VCeN5NyhKmtZWZoLSInZ-8" value="Day" style="rounded=0;whiteSpace=wrap;html=1;" vertex="1" parent="1">
          <mxGeometry x="280" y="90" width="80" height="20" as="geometry" />
        </mxCell>
        <mxCell id="VCeN5NyhKmtZWZoLSInZ-9" value="Year" style="rounded=0;whiteSpace=wrap;html=1;" vertex="1" parent="1">
          <mxGeometry x="360" y="90" width="80" height="20" as="geometry" />
        </mxCell>
        <mxCell id="VCeN5NyhKmtZWZoLSInZ-10" value="&lt;u&gt;StudentID&lt;/u&gt;" style="rounded=0;whiteSpace=wrap;html=1;" vertex="1" parent="1">
          <mxGeometry x="570" y="90" width="90" height="20" as="geometry" />
        </mxCell>
        <mxCell id="VCeN5NyhKmtZWZoLSInZ-12" value="TEACHER" style="text;html=1;strokeColor=none;fillColor=none;align=center;verticalAlign=middle;whiteSpace=wrap;rounded=0;" vertex="1" parent="1">
          <mxGeometry x="40" y="210" width="60" height="30" as="geometry" />
        </mxCell>
        <mxCell id="VCeN5NyhKmtZWZoLSInZ-13" value="FName" style="rounded=0;whiteSpace=wrap;html=1;" vertex="1" parent="1">
          <mxGeometry x="40" y="240" width="80" height="20" as="geometry" />
        </mxCell>
        <mxCell id="VCeN5NyhKmtZWZoLSInZ-14" value="LName" style="rounded=0;whiteSpace=wrap;html=1;" vertex="1" parent="1">
          <mxGeometry x="120" y="240" width="80" height="20" as="geometry" />
        </mxCell>
        <mxCell id="VCeN5NyhKmtZWZoLSInZ-15" value="Prefic" style="rounded=0;whiteSpace=wrap;html=1;" vertex="1" parent="1">
          <mxGeometry x="200" y="240" width="80" height="20" as="geometry" />
        </mxCell>
        <mxCell id="VCeN5NyhKmtZWZoLSInZ-107" style="edgeStyle=orthogonalEdgeStyle;rounded=0;orthogonalLoop=1;jettySize=auto;html=1;entryX=0.5;entryY=1;entryDx=0;entryDy=0;" edge="1" parent="1" source="VCeN5NyhKmtZWZoLSInZ-16" target="VCeN5NyhKmtZWZoLSInZ-74">
          <mxGeometry relative="1" as="geometry">
            <Array as="points">
              <mxPoint x="320" y="260" />
              <mxPoint x="450" y="260" />
              <mxPoint x="450" y="200" />
              <mxPoint x="80" y="200" />
            </Array>
          </mxGeometry>
        </mxCell>
        <mxCell id="VCeN5NyhKmtZWZoLSInZ-16" value="&lt;u&gt;GradeLevels&lt;/u&gt;" style="rounded=0;whiteSpace=wrap;html=1;" vertex="1" parent="1">
          <mxGeometry x="280" y="240" width="80" height="20" as="geometry" />
        </mxCell>
        <mxCell id="VCeN5NyhKmtZWZoLSInZ-18" value="&lt;u&gt;CertifiacteID&lt;/u&gt;" style="rounded=0;whiteSpace=wrap;html=1;" vertex="1" parent="1">
          <mxGeometry x="360" y="240" width="80" height="20" as="geometry" />
        </mxCell>
        <mxCell id="VCeN5NyhKmtZWZoLSInZ-19" value="CONTACT" style="text;html=1;strokeColor=none;fillColor=none;align=center;verticalAlign=middle;whiteSpace=wrap;rounded=0;" vertex="1" parent="1">
          <mxGeometry x="40" y="370" width="60" height="30" as="geometry" />
        </mxCell>
        <mxCell id="VCeN5NyhKmtZWZoLSInZ-20" value="&lt;u&gt;FName&lt;/u&gt;" style="rounded=0;whiteSpace=wrap;html=1;" vertex="1" parent="1">
          <mxGeometry x="40" y="400" width="80" height="20" as="geometry" />
        </mxCell>
        <mxCell id="VCeN5NyhKmtZWZoLSInZ-21" value="&lt;u&gt;LName&lt;/u&gt;" style="rounded=0;whiteSpace=wrap;html=1;" vertex="1" parent="1">
          <mxGeometry x="120" y="400" width="80" height="20" as="geometry" />
        </mxCell>
        <mxCell id="VCeN5NyhKmtZWZoLSInZ-22" value="PhoneNum" style="rounded=0;whiteSpace=wrap;html=1;" vertex="1" parent="1">
          <mxGeometry x="200" y="400" width="80" height="20" as="geometry" />
        </mxCell>
        <mxCell id="VCeN5NyhKmtZWZoLSInZ-26" value="GUARDIAN" style="text;html=1;strokeColor=none;fillColor=none;align=center;verticalAlign=middle;whiteSpace=wrap;rounded=0;" vertex="1" parent="1">
          <mxGeometry x="40" y="430" width="60" height="30" as="geometry" />
        </mxCell>
        <mxCell id="VCeN5NyhKmtZWZoLSInZ-27" value="&lt;u&gt;FName&lt;/u&gt;" style="rounded=0;whiteSpace=wrap;html=1;" vertex="1" parent="1">
          <mxGeometry x="40" y="460" width="80" height="20" as="geometry" />
        </mxCell>
        <mxCell id="VCeN5NyhKmtZWZoLSInZ-28" value="&lt;u&gt;LName&lt;/u&gt;" style="rounded=0;whiteSpace=wrap;html=1;" vertex="1" parent="1">
          <mxGeometry x="120" y="460" width="80" height="20" as="geometry" />
        </mxCell>
        <mxCell id="VCeN5NyhKmtZWZoLSInZ-29" value="PhoneNum" style="rounded=0;whiteSpace=wrap;html=1;" vertex="1" parent="1">
          <mxGeometry x="200" y="460" width="80" height="20" as="geometry" />
        </mxCell>
        <mxCell id="VCeN5NyhKmtZWZoLSInZ-44" value="ALLERGY" style="text;html=1;strokeColor=none;fillColor=none;align=center;verticalAlign=middle;whiteSpace=wrap;rounded=0;" vertex="1" parent="1">
          <mxGeometry x="40" y="500" width="60" height="30" as="geometry" />
        </mxCell>
        <mxCell id="VCeN5NyhKmtZWZoLSInZ-45" value="&lt;u&gt;Type&lt;/u&gt;" style="rounded=0;whiteSpace=wrap;html=1;" vertex="1" parent="1">
          <mxGeometry x="40" y="530" width="80" height="20" as="geometry" />
        </mxCell>
        <mxCell id="VCeN5NyhKmtZWZoLSInZ-46" value="Protocol" style="rounded=0;whiteSpace=wrap;html=1;" vertex="1" parent="1">
          <mxGeometry x="120" y="530" width="80" height="20" as="geometry" />
        </mxCell>
        <mxCell id="VCeN5NyhKmtZWZoLSInZ-113" style="edgeStyle=orthogonalEdgeStyle;rounded=0;orthogonalLoop=1;jettySize=auto;html=1;entryX=0.922;entryY=1.217;entryDx=0;entryDy=0;entryPerimeter=0;" edge="1" parent="1" source="VCeN5NyhKmtZWZoLSInZ-47" target="VCeN5NyhKmtZWZoLSInZ-10">
          <mxGeometry relative="1" as="geometry" />
        </mxCell>
        <mxCell id="VCeN5NyhKmtZWZoLSInZ-47" value="&lt;u&gt;StudentID&lt;/u&gt;" style="rounded=0;whiteSpace=wrap;html=1;" vertex="1" parent="1">
          <mxGeometry x="200" y="530" width="80" height="20" as="geometry" />
        </mxCell>
        <mxCell id="VCeN5NyhKmtZWZoLSInZ-111" style="edgeStyle=orthogonalEdgeStyle;rounded=0;orthogonalLoop=1;jettySize=auto;html=1;entryX=0.552;entryY=1.15;entryDx=0;entryDy=0;entryPerimeter=0;" edge="1" parent="1" source="VCeN5NyhKmtZWZoLSInZ-49" target="VCeN5NyhKmtZWZoLSInZ-10">
          <mxGeometry relative="1" as="geometry" />
        </mxCell>
        <mxCell id="VCeN5NyhKmtZWZoLSInZ-49" value="&lt;u&gt;StudentID&lt;/u&gt;" style="rounded=0;whiteSpace=wrap;html=1;" vertex="1" parent="1">
          <mxGeometry x="280" y="400" width="80" height="20" as="geometry" />
        </mxCell>
        <mxCell id="VCeN5NyhKmtZWZoLSInZ-112" style="edgeStyle=orthogonalEdgeStyle;rounded=0;orthogonalLoop=1;jettySize=auto;html=1;entryX=0.75;entryY=1;entryDx=0;entryDy=0;" edge="1" parent="1" source="VCeN5NyhKmtZWZoLSInZ-50" target="VCeN5NyhKmtZWZoLSInZ-10">
          <mxGeometry relative="1" as="geometry" />
        </mxCell>
        <mxCell id="VCeN5NyhKmtZWZoLSInZ-50" value="&lt;u&gt;StudentID&lt;/u&gt;" style="rounded=0;whiteSpace=wrap;html=1;" vertex="1" parent="1">
          <mxGeometry x="280" y="460" width="80" height="20" as="geometry" />
        </mxCell>
        <mxCell id="VCeN5NyhKmtZWZoLSInZ-73" value="TAUGHT_BY" style="text;html=1;strokeColor=none;fillColor=none;align=center;verticalAlign=middle;whiteSpace=wrap;rounded=0;" vertex="1" parent="1">
          <mxGeometry x="50" y="120" width="60" height="30" as="geometry" />
        </mxCell>
        <mxCell id="VCeN5NyhKmtZWZoLSInZ-74" value="&lt;u&gt;CurrentGrade&lt;/u&gt;" style="rounded=0;whiteSpace=wrap;html=1;" vertex="1" parent="1">
          <mxGeometry x="40" y="150" width="80" height="20" as="geometry" />
        </mxCell>
        <mxCell id="VCeN5NyhKmtZWZoLSInZ-90" value="KINDERGARTEN" style="text;html=1;strokeColor=none;fillColor=none;align=center;verticalAlign=middle;whiteSpace=wrap;rounded=0;" vertex="1" parent="1">
          <mxGeometry x="60" y="280" width="60" height="30" as="geometry" />
        </mxCell>
        <mxCell id="VCeN5NyhKmtZWZoLSInZ-108" style="edgeStyle=orthogonalEdgeStyle;rounded=0;orthogonalLoop=1;jettySize=auto;html=1;entryX=0.75;entryY=1;entryDx=0;entryDy=0;" edge="1" parent="1" source="VCeN5NyhKmtZWZoLSInZ-91" target="VCeN5NyhKmtZWZoLSInZ-74">
          <mxGeometry relative="1" as="geometry">
            <mxPoint x="600" y="160" as="targetPoint" />
            <Array as="points">
              <mxPoint x="80" y="360" />
              <mxPoint x="570" y="360" />
              <mxPoint x="570" y="180" />
              <mxPoint x="100" y="180" />
            </Array>
          </mxGeometry>
        </mxCell>
        <mxCell id="VCeN5NyhKmtZWZoLSInZ-91" value="&lt;u&gt;CurrentGrade&lt;/u&gt;" style="rounded=0;whiteSpace=wrap;html=1;" vertex="1" parent="1">
          <mxGeometry x="40" y="310" width="80" height="20" as="geometry" />
        </mxCell>
        <mxCell id="VCeN5NyhKmtZWZoLSInZ-92" value="AMvsPM" style="rounded=0;whiteSpace=wrap;html=1;" vertex="1" parent="1">
          <mxGeometry x="120" y="310" width="80" height="20" as="geometry" />
        </mxCell>
        <mxCell id="VCeN5NyhKmtZWZoLSInZ-93" value="ELEMENTARY" style="text;html=1;strokeColor=none;fillColor=none;align=center;verticalAlign=middle;whiteSpace=wrap;rounded=0;" vertex="1" parent="1">
          <mxGeometry x="300" y="280" width="60" height="30" as="geometry" />
        </mxCell>
        <mxCell id="VCeN5NyhKmtZWZoLSInZ-109" style="edgeStyle=orthogonalEdgeStyle;rounded=0;orthogonalLoop=1;jettySize=auto;html=1;entryX=0.621;entryY=1.15;entryDx=0;entryDy=0;entryPerimeter=0;" edge="1" parent="1" source="VCeN5NyhKmtZWZoLSInZ-94" target="VCeN5NyhKmtZWZoLSInZ-74">
          <mxGeometry relative="1" as="geometry">
            <mxPoint x="560" y="190" as="targetPoint" />
            <Array as="points">
              <mxPoint x="340" y="350" />
              <mxPoint x="560" y="350" />
              <mxPoint x="560" y="190" />
              <mxPoint x="90" y="190" />
            </Array>
          </mxGeometry>
        </mxCell>
        <mxCell id="VCeN5NyhKmtZWZoLSInZ-94" value="&lt;u&gt;CurrentGrade&lt;/u&gt;" style="rounded=0;whiteSpace=wrap;html=1;" vertex="1" parent="1">
          <mxGeometry x="300" y="310" width="80" height="20" as="geometry" />
        </mxCell>
        <mxCell id="VCeN5NyhKmtZWZoLSInZ-95" value="Division" style="rounded=0;whiteSpace=wrap;html=1;" vertex="1" parent="1">
          <mxGeometry x="380" y="310" width="80" height="20" as="geometry" />
        </mxCell>
        <mxCell id="VCeN5NyhKmtZWZoLSInZ-114" style="edgeStyle=orthogonalEdgeStyle;rounded=0;orthogonalLoop=1;jettySize=auto;html=1;entryX=0.25;entryY=1;entryDx=0;entryDy=0;" edge="1" parent="1" source="VCeN5NyhKmtZWZoLSInZ-99" target="VCeN5NyhKmtZWZoLSInZ-10">
          <mxGeometry relative="1" as="geometry">
            <Array as="points">
              <mxPoint x="500" y="340" />
              <mxPoint x="593" y="340" />
            </Array>
          </mxGeometry>
        </mxCell>
        <mxCell id="VCeN5NyhKmtZWZoLSInZ-99" value="&lt;u&gt;StudentID&lt;/u&gt;" style="rounded=0;whiteSpace=wrap;html=1;" vertex="1" parent="1">
          <mxGeometry x="460" y="310" width="80" height="20" as="geometry" />
        </mxCell>
        <mxCell id="VCeN5NyhKmtZWZoLSInZ-115" style="edgeStyle=orthogonalEdgeStyle;rounded=0;orthogonalLoop=1;jettySize=auto;html=1;entryX=0.441;entryY=1.05;entryDx=0;entryDy=0;entryPerimeter=0;" edge="1" parent="1" source="VCeN5NyhKmtZWZoLSInZ-100" target="VCeN5NyhKmtZWZoLSInZ-10">
          <mxGeometry relative="1" as="geometry">
            <Array as="points">
              <mxPoint x="235" y="370" />
              <mxPoint x="610" y="370" />
            </Array>
          </mxGeometry>
        </mxCell>
        <mxCell id="VCeN5NyhKmtZWZoLSInZ-100" value="&lt;u&gt;StudentID&lt;/u&gt;" style="rounded=0;whiteSpace=wrap;html=1;" vertex="1" parent="1">
          <mxGeometry x="200" y="310" width="70" height="20" as="geometry" />
        </mxCell>
        <mxCell id="VCeN5NyhKmtZWZoLSInZ-110" style="edgeStyle=orthogonalEdgeStyle;rounded=0;orthogonalLoop=1;jettySize=auto;html=1;entryX=0.25;entryY=1;entryDx=0;entryDy=0;" edge="1" parent="1" source="VCeN5NyhKmtZWZoLSInZ-106" target="VCeN5NyhKmtZWZoLSInZ-74">
          <mxGeometry relative="1" as="geometry">
            <Array as="points">
              <mxPoint x="505" y="210" />
              <mxPoint x="60" y="210" />
            </Array>
          </mxGeometry>
        </mxCell>
        <mxCell id="VCeN5NyhKmtZWZoLSInZ-106" value="&lt;u&gt;CurrentGrade&lt;/u&gt;" style="rounded=0;whiteSpace=wrap;html=1;" vertex="1" parent="1">
          <mxGeometry x="440" y="90" width="130" height="20" as="geometry" />
        </mxCell>
      </root>
    </mxGraphModel>
  </diagram>
</mxfile>
